<?xml version="1.0" encoding="UTF-8"?>
<svg id="Layer_7" data-name="Layer 7" xmlns="http://www.w3.org/2000/svg" viewBox="0 0 864 864">
  <defs>
    <style>
      .cls-1 {
        fill: #ed2024;
      }

      .cls-2 {
        fill: #fff;
      }
    </style>
  </defs>
  <g id="Layer_3" data-name="Layer 3">
    <path class="cls-1" d="M267.71,609.22c-21.31,14.07-27.48,32.3-28.83,49.82-.76,9.85-.19,19.78,4.03,29.42,4.39,10.02,6.08,16.06,2.99,20.87-1.69,2.64-3.32,2.02-10.71,8.28-5.91,5-6.87,7.1-7,9-.22,3.09,1.76,5.66,3,7,1.58,.58,4.86,1.55,9,1,4.27-.57,7.25-2.46,8.61-3.46-.11,2.36,.1,6.49,2.58,10.44,.85,1.34,1.85,2.9,3.82,4.02,4.52,2.57,9.55,.22,10,0,2.54-1.24,3.91-3.1,4.51-3.95,2.81-3.92,2.66-8.21,2.54-9.7l7.95,3.64c5.04,1.78,10.23-.35,12-4,2.13-4.38-.59-11.16-7-13-1-.69-2.43-1.78-3.87-3.38-4.96-5.52-5.75-12.19-6.21-18.31-.88-11.55-1.75-23.11-2.63-34.66-.55-7.29-1.07-14.74,3.15-21.73,10.09-16.74,46.07-27.28,81.51-28.77,9.83-.41,20.76-.46,27.95-3.77,36.19-16.68-18.39-17.8-38.52-16.7-32.19,1.77-57.93,4.11-78.86,17.93Z"/>
    <path class="cls-1" d="M582.6,637.78c12.23,15.36,13.25,32.41,13.68,39.69,.55,9.24,1.22,20.46-5.98,26.91-2.8,2.51-5.69,3.31-8.85,7.61-1.25,1.71-6.92,9.43-3.42,14.19,2.91,3.96,10.94,4.16,14.83,1.09,3.1-2.45,2.41-6.07,4.56-6.55,3.27-.73,5.28,7.53,11.41,8.73,4.7,.93,11.55-2.37,13.14-8.24,1.63-6.05-3.38-10.92-3.61-11.14,1.37,1.09,5.31,3.92,11,4.1,4.97,.15,8.47-1.8,9.12-2.18,1.73-1,5.81-3.36,5.7-6.55-.11-3.32-4.71-5.53-6.84-6.55-4.75-2.28-7.16-1.29-9.58-2.49-6.33-3.12-4.4-17.04-4.11-24.8,.69-18.33-6.61-32.3-13.69-45.84-4.92-9.42-17.36-33.21-39.08-37.16-6.85-1.25-19.41-1.38-22.11,3.97-.95,1.89-.53,4.16-.22,5.81,1.12,6,5.47,9.92,6.67,11.01,7.62,6.93,21.73,21.28,27.37,28.37Z"/>
    <path class="cls-1" d="M642.89,459.64c2.23,91.55-83.88,210.53-210.5,210.5-123.54-.03-207.34-113.31-210.5-210.5-.38-11.56-1.58-84.66,54-138.5,57.67-55.86,134.17-50.04,161-48,13.87,1.06,125.4,11.35,180,104,7.98,13.53,25.04,43.27,26,82.5Z"/>
  </g>
  <g>
    <circle class="cls-2" cx="381.1" cy="431.68" r="68.32"/>
    <circle cx="380.57" cy="431.55" r="28.82"/>
  </g>
  <g id="Layer_8" data-name="Layer 8">
    <path class="cls-1" d="M530.75,247.14c14.05-25.71,17.01-58.66,2.41-84.06-4.2-7.3-9.82-13.92-16.98-18.35-9.3-5.76-20.57-7.51-31.51-7.53-15.96-.03-32.87,3.87-44.03,15.28-5,5.12-8.6,11.58-10.38,18.51-3.38,13.15,.45,25.79,10.89,31.77,10.44,5.97,26.88-1.39,26.42-13.41-.11-2.85-1.55-6.08-4.35-6.64-1.07-.21-1.97,.04-2.24,.13-4.68,1.58,.9,9.3-5.1,12.3-1.15,.58-5.29,.64-9.02-1.79-5.1-3.33-5.64-9.4-5.7-10.43-.49-8.12,5.72-16.78,12.72-21.78,6.62-4.73,16.9-8.23,25-9,8.69-.82,18.42,1.67,26,6,7,4,10.1,10.05,14,21s2.84,23.57,2.02,29.69c-3.02,22.31-11.4,29.52-21.58,41.4-8,9.33-33.41,30.58-42.44,38.92-6.72,6.21-7.33,8.3-3.58,19.03,4.78,13.69,14.14,5.02,20.57-.74,20.22-18.12,43.51-35.83,56.88-60.28Z"/>
  </g>
</svg>