<?xml version="1.0" encoding="UTF-8"?>
<svg id="Layer_2" data-name="Layer 2" xmlns="http://www.w3.org/2000/svg" viewBox="0 0 864 864">
  <defs>
    <style>
      .cls-1 {
        fill: #ed2024;
      }

      .cls-2 {
        fill: #fff;
      }
    </style>
  </defs>
  <path class="cls-1" d="M637.92,509.95c-15.64,70.18-86.61,141.1-156.8,156.7-39.11,8.69-76.93,6.5-111.03-4.13-17.54-5.47-65.71-23.1-103.56-71.91-41.67-53.74-44.16-110.93-44.21-129.09v-.5h211V251.02c131.82,.31,235.16,121.76,204.6,258.92Z"/>
  <path class="cls-1" d="M267.83,609.64c-21.31,14.07-27.48,32.3-28.83,49.82-.76,9.85-.19,19.78,4.03,29.42,4.39,10.02,6.08,16.06,2.99,20.87-1.69,2.64-3.32,2.02-10.71,8.28-5.91,5-6.87,7.1-7,9-.22,3.09,1.76,5.66,3,7,1.58,.58,4.86,1.55,9,1,4.27-.57,7.25-2.46,8.61-3.46-.11,2.36,.1,6.49,2.58,10.44,.85,1.34,1.85,2.9,3.82,4.02,4.52,2.57,9.55,.22,10,0,2.54-1.24,3.91-3.1,4.51-3.95,2.81-3.92,2.66-8.21,2.54-9.7l7.95,3.64c5.04,1.78,10.23-.35,12-4,2.13-4.38-.59-11.16-7-13-1-.69-2.43-1.78-3.87-3.38-4.96-5.52-5.75-12.19-6.21-18.31-.88-11.55-1.75-23.11-2.63-34.66-.55-7.29-1.07-14.74,3.15-21.73,10.09-16.74,46.07-27.28,81.51-28.77,9.83-.41,20.76-.46,27.95-3.77,36.19-16.68-18.39-17.8-38.52-16.7-32.19,1.77-57.93,4.11-78.86,17.93Z"/>
  <path class="cls-1" d="M582.73,638.2c12.23,15.36,13.25,32.41,13.68,39.69,.55,9.24,1.22,20.46-5.98,26.91-2.8,2.51-5.69,3.31-8.85,7.61-1.25,1.71-6.92,9.43-3.42,14.19,2.91,3.96,10.94,4.16,14.83,1.09,3.1-2.45,2.41-6.07,4.56-6.55,3.27-.73,5.28,7.53,11.41,8.73,4.7,.93,11.55-2.37,13.14-8.24,1.63-6.05-3.38-10.92-3.61-11.14,1.37,1.09,5.31,3.92,11,4.1,4.97,.15,8.47-1.8,9.12-2.18,1.73-1,5.81-3.36,5.7-6.55-.11-3.32-4.71-5.53-6.84-6.55-4.75-2.28-7.16-1.29-9.58-2.49-6.33-3.12-4.4-17.04-4.11-24.8,.69-18.33-6.61-32.3-13.69-45.84-4.92-9.42-17.36-33.21-39.08-37.16-6.85-1.25-19.41-1.38-22.11,3.97-.95,1.89-.53,4.16-.22,5.81,1.12,6,5.47,9.92,6.67,11.01,7.62,6.93,21.73,21.28,27.37,28.37Z"/>
  <polygon class="cls-2" points="254.39 461.02 222 461.02 238.19 432.97 254.39 461.02"/>
  <polygon class="cls-2" points="293.71 461.02 315.52 432.2 329.85 461.02 293.71 461.02"/>
  <polygon class="cls-2" points="293.55 461.02 254.19 461.02 288.69 421.96 293.55 461.02"/>
  <polygon class="cls-2" points="362.31 461.02 329.92 461.02 346.12 432.97 362.31 461.02"/>
  <polygon class="cls-2" points="393.9 461.02 372.09 432.2 357.75 461.02 393.9 461.02"/>
  <polygon class="cls-2" points="393.28 461.02 425.59 461.02 398.84 429.2 393.28 461.02"/>
  <polygon class="cls-2" points="433.32 404.53 404.5 380.53 433.32 364.76 433.32 404.53"/>
  <polygon class="cls-2" points="433.32 329.04 433.32 364.68 405.27 346.86 433.32 329.04"/>
  <polygon class="cls-2" points="433.32 294.27 404.5 318.28 433.32 334.05 433.32 294.27"/>
  <polygon class="cls-2" points="433.32 294.1 433.32 250.78 394.26 288.75 433.32 294.1"/>
  <polygon class="cls-2" points="433.32 404.1 404.5 425.91 433.32 440.24 433.32 404.1"/>
  <g id="Layer_6" data-name="Layer 6">
    <circle class="cls-2" cx="535.82" cy="480.52" r="49.5"/>
    <circle cx="535.44" cy="480.43" r="20.88"/>
  </g>
  <path class="cls-1" d="M704.67,384.7c21.78-19.59,35.51-49.69,30.17-78.5-1.54-8.28-4.64-16.39-9.92-22.95-6.86-8.52-16.91-13.91-27.22-17.56-15.05-5.33-32.29-7.26-46.6-.2-6.42,3.17-11.96,8.07-15.94,14.01-7.55,11.28-8.14,24.48-.27,33.58,7.86,9.1,25.82,7.61,29.37-3.88,.84-2.73,.55-6.25-1.9-7.71-.94-.56-1.87-.62-2.15-.62-4.94-.06-2.24,9.07-8.89,9.91-1.28,.16-5.21-1.15-7.91-4.69-3.71-4.83-2.2-10.74-1.92-11.73,2.23-7.83,10.97-13.93,19.23-16.32,7.82-2.26,18.67-2.16,26.57-.19,8.47,2.11,16.82,7.69,22.53,14.29,5.28,6.1,6.19,12.83,6.24,24.46,.05,11.62-5.14,23.18-7.95,28.67-10.25,20.05-20.55,24.06-34.09,31.89-10.64,6.15-41.66,17.76-52.95,22.63-8.4,3.62-9.67,5.4-9.69,16.76-.03,14.5,11.67,9.43,19.65,6.13,25.09-10.38,52.94-19.36,73.66-37.99Z"/>
</svg>